<?xml version="1.0" standalone="no"?><!DOCTYPE svg PUBLIC "-//W3C//DTD SVG 1.1//EN" "http://www.w3.org/Graphics/SVG/1.1/DTD/svg11.dtd"><svg t="1539937400587" class="icon" style="" viewBox="0 0 1024 1024" version="1.1" xmlns="http://www.w3.org/2000/svg" p-id="1145" xmlns:xlink="http://www.w3.org/1999/xlink" width="200" height="200"><defs><style type="text/css"></style></defs><path d="M512 1024a512 512 0 1 1 512-512 512 512 0 0 1-512 512z m0-17.964912A494.035088 494.035088 0 1 0 17.964912 512a494.035088 494.035088 0 0 0 494.035088 494.035088z" fill="#D3DFEF" p-id="1146"></path><path d="M512 512m-458.105263 0a458.105263 458.105263 0 1 0 916.210526 0 458.105263 458.105263 0 1 0-916.210526 0Z" fill="#F4F9FF" p-id="1147"></path><path d="M516.042105 988.070175A454.332632 454.332632 0 0 0 907.22807 763.508772c-23.084912-35.929825-183.062456-89.824561-246.119298-89.824561-124.586667 218.812632-292.199298 37.007719-289.145263 1.527017-86.05193-6.10807-196.715789 59.194386-255.191579 99.345965C198.242807 905.521404 348.968421 988.070175 512 988.070175" fill="#D3DFEF" p-id="1148"></path><path d="M660.659649 679.432982l2.335439-5.299649c-21.288421-21.647719-35.929825-64.224561-30.270877-125.754386-56.230175 90.902456-165.636491 95.483509-222.046316 1.077895 4.581053 27.845614-4.311579 68.53614-39.343158 125.754386 2.964211 50.661053 175.247719 208.482807 289.324912 4.221754z" fill="#EDE7E6" p-id="1149"></path><path d="M409.150877 559.157895c4.491228 17.964912 133.928421 144.887018 251.508772 114.885614-34.672281-42.127719-27.396491-113.358596-24.432281-152.701755 12.036491-28.564211-226.986667 8.982456-230.040701 33.324913z" fill="#E3DCDB" p-id="1150"></path><path d="M646.736842 512c71.051228-19.222456 83.985965-162.672281 17.964912-102.130526A317.170526 317.170526 0 0 1 646.736842 512z" fill="#EFE7E6" p-id="1151"></path><path d="M630.927719 316.272281c-130.425263 28.654035-184.140351-30.181053-210.189473-46.798597-42.93614 33.235088-32.247018 110.124912-45.990176 125.215439-1.527018-3.054035-4.581053-6.018246-6.10807-8.982456-10.778947 319.955088 299.205614 298.846316 296.421053 16.617544-27.57614-43.744561-22.995088-44.912281-33.774035-86.05193" fill="#F7EDEB" p-id="1152"></path><path d="M627.963509 317.44c10.599298 42.756491 6.287719 40.690526 35.121403 86.590877 22.815439 7.635088 85.06386-209.381053-100.24421-238.394386-215.578947-33.594386-242.526316 161.684211-187.912983 230.130527 13.653333-13.743158 4.221754-91.261754 44.912281-124.856141 26.138947 18.324211 79.045614 77.159298 208.123509 46.529123z" fill="#A6B1BF" p-id="1153"></path></svg>